<svg xmlns="http://www.w3.org/2000/svg" viewBox="0 0 400 300">
<defs><linearGradient id="w" x1="0" y1="0" x2="0" y2="1"><stop offset="0" stop-color="#f0f9ff"/><stop offset="1" stop-color="#e0f2fe"/></linearGradient></defs>
<rect width="400" height="300" fill="url(#w)"/>
<rect y="232" width="400" height="68" fill="#bae6fd"/>
<rect y="232" width="400" height="4" fill="#7dd3fc" opacity=".5"/>

<rect x="210" y="40" width="150" height="54" rx="12" fill="#ffffff" stroke="#7dd3fc" stroke-width="4"/>
<path d="M222 78 h126" stroke="#7dd3fc" stroke-width="4"/><path d="M222 86 h126" stroke="#bae6fd" stroke-width="3"/>
<circle cx="344" cy="56" r="4" fill="#22c55e"/>
<g stroke="#7dd3fc" stroke-width="4" stroke-linecap="round" fill="none"><path d="M240 104 q6 12 0 24"/><path d="M280 104 q6 12 0 24"/><path d="M320 104 q6 12 0 24"/></g>
<rect x="120" y="200" width="70" height="12" rx="3" fill="#d6a574"/><path d="M128 212 l-8 22 M182 212 l8 22" stroke="#d6a574" stroke-width="6" stroke-linecap="round"/>
<g>
<rect x="139" y="152" width="13" height="52" rx="6" fill="#1e293b"/>
<rect x="158" y="152" width="13" height="52" rx="6" fill="#1e293b"/>
<ellipse cx="145" cy="202" rx="12" ry="5" fill="#1e293b"/>
<ellipse cx="165" cy="202" rx="12" ry="5" fill="#1e293b"/>
<path d="M141 106 L184 100" stroke="#0284c7" stroke-width="13" stroke-linecap="round"/>
<circle cx="184" cy="100" r="7" fill="#facc15"/>
<rect x="131" y="94" width="48" height="66" rx="18" fill="#0ea5e9"/>
<path d="M140 110 h30 v44 q-15 8 -30 0z" fill="#ffffff"/>
<rect x="149" y="84" width="12" height="14" fill="#f1c6a4"/>
<circle cx="155" cy="74" r="19" fill="#f1c6a4"/>
<path d="M135 72 q2 -24 20 -24 q18 0 20 24 q-6 -10 -20 -10 q-14 0 -20 10z" fill="#1e293b"/>
<path d="M134 64 q21 -14 42 0 v-4 q-21 -16 -42 0z" fill="#0284c7"/>
<circle cx="149" cy="76" r="2" fill="#1e293b"/><circle cx="161" cy="76" r="2" fill="#1e293b"/>
<path d="M150 83 q5 4 10 0" stroke="#1e293b" stroke-width="2" fill="none" stroke-linecap="round"/>
<path d="M169 106 L208 84" stroke="#0284c7" stroke-width="13" stroke-linecap="round"/>
<circle cx="208" cy="84" r="7" fill="#facc15"/>
</g>
<g><rect x="204" y="82" width="18" height="30" rx="5" fill="#06b6d4"/>
<rect x="208" y="72" width="10" height="12" fill="#ffffff"/><path d="M213 72 h12 v5 h-12z" fill="#ffffff"/>
<g fill="#7dd3fc"><circle cx="234" cy="72" r="2.5"/><circle cx="242" cy="67" r="2"/><circle cx="242" cy="77" r="2"/><circle cx="250" cy="71" r="1.8"/></g></g>
<path d="M268 228 h44" stroke="#475569" stroke-width="8" stroke-linecap="round"/><circle cx="260" cy="228" r="9" fill="none" stroke="#475569" stroke-width="6"/><rect x="330" y="206" width="46" height="28" rx="5" fill="#0284c7"/><rect x="346" y="200" width="14" height="8" rx="2" fill="none" stroke="#0284c7" stroke-width="4"/>
<path d="M380 120 Q380 130 390 130 Q380 130 380 140 Q380 130 370 130 Q380 130 380 120Z" fill="#ffffff"/><path d="M60 51 Q60 60 69 60 Q60 60 60 69 Q60 60 51 60 Q60 60 60 51Z" fill="#7dd3fc"/><path d="M250 143 Q250 150 257 150 Q250 150 250 157 Q250 150 243 150 Q250 150 250 143Z" fill="#ffffff"/>
</svg>